  <svg version="1.1" viewBox="0.0 0.0 960.0 720.0" fill="none" stroke="none" stroke-linecap="square" stroke-miterlimit="10" xmlns:xlink="http://www.w3.org/1999/xlink" xmlns="http://www.w3.org/2000/svg"><clipPath id="p.0"><path d="m0 0l960.0 0l0 720.0l-960.0 0l0 -720.0z" clip-rule="nonzero"/></clipPath><g clip-path="url(#p.0)"><path fill="#000000" fill-opacity="0.0" d="m0 0l960.0 0l0 720.0l-960.0 0z" fill-rule="evenodd"/><path fill="#f4f700" d="m414.9449 320.83203l0 0c0 -34.876587 29.12616 -63.149628 65.055115 -63.149628l0 0c17.253693 0 33.80072 6.6532593 46.000916 18.496094c12.200195 11.842865 19.0542 27.905212 19.0542 44.653534l0 0c0 34.876556 -29.12616 63.149597 -65.055115 63.149597l0 0c-35.928955 0 -65.055115 -28.27304 -65.055115 -63.149597z" fill-rule="evenodd"/><path stroke="#dbde00" stroke-width="8.0" stroke-linejoin="round" stroke-linecap="butt" d="m414.9449 320.83203l0 0c0 -34.876587 29.12616 -63.149628 65.055115 -63.149628l0 0c17.253693 0 33.80072 6.6532593 46.000916 18.496094c12.200195 11.842865 19.0542 27.905212 19.0542 44.653534l0 0c0 34.876556 -29.12616 63.149597 -65.055115 63.149597l0 0c-35.928955 0 -65.055115 -28.27304 -65.055115 -63.149597z" fill-rule="evenodd"/></g></svg>